#N canvas 34 371 925 414 12;
#X declare -path ..;
#X symbolatom 322 114 10 0 0 0 - - - 0;
#X text 321 65 Example rec_mesg_tellme;
#X msg 322 91 symbol more;
#X obj 322 140 osc_net/send_msg 1 tellme s;
#X obj 322 167 s /osc/1/send;
#X obj 438 169 s /osc/2/send;
#X obj 322 194 r /osc/1/message;
#X obj 322 219 osc_net/parse_msg told;
#X obj 322 242 print told;
#X obj 444 194 r /osc/2/message;
#X text 487 222 example parser;
#X obj 54 101 osc_net/info_show 2;
#X obj 54 201 osc_net/auto_connect_ctl 2;
#X obj 54 252 osc_net/send_ctl 2;
#X obj 52 66 hradio 15 1 0 11 /osc/2/id /osc/2/id ID 0 -8 0 10 #fcfcfc #000000 #000000 0;
#X text 174 64 8;
#X obj 248 67 nbx 3 14 -1e+37 1e+37 0 0 /osc/2/id /osc/2/id id 0 -8 0 10 #fcfcfc #000000 #000000 0 256;
#X text 201 63 10;
#X text 220 65 ...;
#X text 50 13 Alternative sender;
#X obj 640 64 osc_net/info_parse 2 1;
#X obj 635 119 osc_net/auto_connect 2 1 1;
#X obj 635 169 r /osc/2/send;
#X obj 635 221 s /osc/2/return;
#X obj 643 349 s /osc/2/message;
#X text 675 30 BOARD 2;
#X obj 643 320 osc_net/parse_device 2 networker;
#X obj 640 381 s /osc/2/message;
#X obj 635 195 osc_net/send 2 1.2.3.4 5510;
#X obj 643 294 r /osc/1/receive;
#X obj 334 39 declare -path ..;
#X connect 0 0 3 0;
#X connect 2 0 0 0;
#X connect 3 0 4 0;
#X connect 3 0 5 0;
#X connect 6 0 7 0;
#X connect 7 0 8 0;
#X connect 9 0 7 0;
#X connect 22 0 28 0;
#X connect 26 0 24 0;
#X connect 28 0 23 0;
#X connect 29 0 26 0;
