#N canvas 954 95 450 300 10;
#X obj 35 79 spigot;
#X obj 35 101 print in;
#X obj 24 34 netreceive -b -u 55555;
#X obj 67 59 tgl 15 0 empty empty empty 17 7 0 10 #fcfcfc #000000 #000000
0 1;
#X obj 24 133 oscparse;
#X obj 64 153 tgl 15 0 empty empty empty 17 7 0 10 #fcfcfc #000000
#000000 0 1;
#X obj 30 201 print osc-in;
#X text 20 13 Receive OSC on port 55555;
#X obj 231 78 spigot;
#X obj 263 58 tgl 15 0 empty empty empty 17 7 0 10 #fcfcfc #000000
#000000 0 1;
#X obj 220 132 oscparse;
#X obj 260 152 tgl 15 0 empty empty empty 17 7 0 10 #fcfcfc #000000
#000000 0 1;
#X obj 220 33 netreceive -b -u 55556;
#X text 216 12 Anounces on port 55556;
#X obj 226 200 print announce;
#X obj 231 100 print announce_raw;
#X obj 30 180 spigot 1;
#X obj 226 179 spigot 1;
#X connect 0 0 1 0;
#X connect 2 0 0 0;
#X connect 2 0 4 0;
#X connect 3 0 0 1;
#X connect 4 0 16 0;
#X connect 5 0 16 1;
#X connect 8 0 15 0;
#X connect 9 0 8 1;
#X connect 10 0 17 0;
#X connect 11 0 17 1;
#X connect 12 0 8 0;
#X connect 12 0 10 0;
#X connect 16 0 6 0;
#X connect 17 0 14 0;
