#N canvas 610 587 921 399 12;
#X obj 495 21 loadbang;
#X obj 553 106 sel 0;
#X obj 34 134 unpack symbol f f f f f symbol f f f;
#X obj 33 103 route \$2;
#X obj 40 167 pack \$1 \$2 \$3 \$4;
#X obj 39 197 list append \$1;
#X obj 500 268 sel 1;
#X msg 500 293 0;
#X obj 495 46 t b b;
#X msg 495 116 1;
#X obj 501 239 spigot;
#X obj 553 81 i \$3;
#X obj 307 201 list append \$1;
#X obj 625 7 inlet;
#X obj 107 58 r /osc/\$1/send/auto/on;
#X obj 622 32 s /osc/\$1/send/auto/osc_net_id;
#X obj 553 137 s /osc/\$1/auto/send/osc_net_id;
#X obj 495 163 s /osc/\$1/send/auto/on;
#X obj 501 211 r /osc/\$1/send/connected;
#X obj 590 237 r /osc/\$1/send/auto/once;
#X obj 499 320 s /osc/\$1/send/auto/on;
#X obj 107 102 r /osc/\$1/send/auto/osc_net_id;
#X obj 634 102 s /osc/\$1/send/auto/once;
#X obj 726 5 r /osc/\$1/id;
#X msg 38 225 \; /osc/\$5/send/ip symbol \$1.\$2.\$3.\$4;
#X msg 306 229 \; /osc/\$2/send/portnr \$1;
#X text 50 2 osc_net/auto_connect <id> <id of detect> <once> [device
id];
#X obj 31 33 r /osc/\$2/info;
#X text 49 350 // /osc/\$2/info <id> <hostname> <remoteIP-1> <remoteIP-2>
<remoteIP-3> <remoteIP-4> <osc_port> <name> <fet_channels> <servo>
, f 74;
#X obj 31 58 spigot \$3;
#X obj 634 72 i \$3;
#X connect 0 0 8 0;
#X connect 1 1 16 0;
#X connect 2 1 4 0;
#X connect 2 2 4 1;
#X connect 2 3 4 2;
#X connect 2 4 4 3;
#X connect 2 5 12 0;
#X connect 3 0 2 0;
#X connect 4 0 5 0;
#X connect 5 0 24 0;
#X connect 6 0 7 0;
#X connect 7 0 20 0;
#X connect 8 0 9 0;
#X connect 8 1 11 0;
#X connect 8 1 30 0;
#X connect 9 0 17 0;
#X connect 10 0 6 0;
#X connect 11 0 1 0;
#X connect 12 0 25 0;
#X connect 13 0 15 0;
#X connect 14 0 29 1;
#X connect 18 0 10 0;
#X connect 19 0 10 1;
#X connect 21 0 3 1;
#X connect 23 0 15 0;
#X connect 27 0 29 0;
#X connect 29 0 3 0;
#X connect 30 0 22 0;
