#N canvas 145 15 797 591 12;
#X obj 19 256 hradio 15 1 0 9 /osc/1/id /osc/1/id ID 0 -8 0 10 #fcfcfc #000000 #000000 0;
#X obj 180 257 nbx 3 14 -1e+37 1e+37 0 0 /osc/1/id /osc/1/id id 0 -8 0 10 #fcfcfc #000000 #000000 0 256;
#X obj 16 71 osc_net/detect_ctl 1;
#X text 224 69 1.) select verbose to detect devices;
#X obj 24 552 bng 15 250 50 0 osc_net_init osc_net_init OSC_NET_reinit 17 7 0 10 #c4fcc4 #000000 #000000;
#X obj 20 284 osc_net/info_show \$3;
#X obj 20 383 osc_net/auto_connect_ctl \$3;
#X obj 20 433 osc_net/send_ctl \$2;
#X obj 16 175 osc_net/receive_ctl \$3;
#X obj 548 342 osc_net/request_networks_ctl \$3;
#X text 547 293 7.) configure WiFi;
#X text 14 52 1.) Detect for base_address (use verbose);
#X text 225 284 3.) wait for receiving info;
#X text 226 85 see console for output;
#X text 218 149 <- OSC base name to match /<base_address>/;
#X text 227 106 OSC info port (default 5511);
#X text 218 204 receive OSC port for /osc/\$3 (default 5510);
#X text 142 254 8;
#X text 52 254 2;
#X text 82 254 4;
#X text 111 254 6;
#X text 154 256 ...;
#X text 20 254 0;
#X text 227 252 2.) select device to interface;
#X text 230 360 <- used network if not an AP;
#X text 227 387 4.) autoconnect using IP info;
#X text 229 410 only once or on each event;
#X text 226 440 5.) set IP from for /osc/1 sender;
#X text 228 470 use verbosity V to debug;
#X text 227 514 send OSC port for /osc/1 (default 5510);
#X text 535 52 === configure device remotly ===;
#X text 552 78 6.) set ID;
#X text 548 107 ID should be unique in network;
#X text 544 126 should be chosen from 1-N (24bits);
#X text 543 314 set network to try to connect;
#X text 549 262 save after reconnect with new ID;
#X obj 546 160 osc_net/request_id_ctl \$2 \$3;
#X text 545 545 save to device storage;
#X text 165 552 <- only for testing new domain;
#X text 65 22 osc_net/config_gui <config id> <osc send id> <osc rec id>;
#X obj 538 19 namecanvas net-config-gui-\$1;
#X text 218 189 use V's to debug incoming messages;
#X text 240 327 Hostname with ID;
#X text 228 489 return should not be used but receive above;
