#N canvas 662 525 622 574 12;
#N canvas 565 959 908 368 init 0;
#X obj 28 12 loadbang;
#X obj 28 220 del 1000;
#X msg 27 271 \; /osc/\$1/send/auto/on 1;
#X text 119 225 parsing info broadcast sets IPs and Ports for expected device;
#X obj 115 14 r osc_net_init;
#X obj 24 38 t b b b b b;
#X msg 600 105 \; /osc/1/detect/v 1;
#X msg 273 118 \; /osc/\$1/base_address symbol networker \; /osc/\$1/id 0 \; /osc/\$1/send/on 1 \; /osc/\$1/send/v 1 \; /osc/\$1/send/return/v 1;
#X text 598 44 1) verbose dedector;
#X text 73 179 3 configure receiver;
#X text 325 82 set device basename and default id;
#X msg 588 182 vis \$1;
#X text 101 73 rec id;
#X obj 587 159 r /osc/net/configure/\$1/GUI;
#X obj 50 72 any \$3;
#X obj 269 85 any \$2;
#X obj 601 80 any \$3;
#X obj 25 246 any \$2;
#X obj 590 209 s net-config-gui-\$1;
#X msg 51 98 \; /osc/\$1/rec/on 1 \; /osc/\$1/rec/v 0 \; /osc/\$1/rec/portnr 5510;
#X connect 0 0 5 0;
#X connect 1 0 17 0;
#X connect 4 0 5 0;
#X connect 5 0 1 0;
#X connect 5 2 14 0;
#X connect 5 3 15 0;
#X connect 5 4 16 0;
#X connect 11 0 18 0;
#X connect 13 0 11 0;
#X connect 14 0 19 0;
#X connect 15 0 7 0;
#X connect 16 0 6 0;
#X connect 17 0 2 0;
#X restore 25 90 pd init;
#X text 214 232 get info of selected controller;
#X text 233 153 get broadcast from controllers;
#X text 134 340 send raw data to the device;
#X text 23 213 --- for each board ---;
#X text 25 125 --- for all boards ---;
#X text 26 423 parse receives and send to devices;
#X obj 319 91 tgl 20 0 /osc/net/configure/\$1/GUI /osc/net/configure/\$1/GUI netconfig-\$1 0 10 0 11 #c6feff #000000 #000000 0 1;
#X text 21 5 osc_net/configuration <config id> <osc send id> <osc rec id>;
#X text 20 29 Simple OSC_networking configuration with id \, one osc send and one osc receive \, where the broadcastboard is the receive id>;
#X obj 25 156 osc_net/detect \$3 networker;
#X obj 25 181 osc_net/receive \$3 5510;
#X obj 27 235 osc_net/info_parse \$1 \$3;
#X obj 28 295 osc_net/auto_connect \$1 \$3 1;
#X obj 27 340 r /osc/\$2/send;
#X obj 27 365 osc_net/send \$2 1.2.3.4 5510;
#X obj 27 394 s /osc/\$2/return;
#X obj 29 442 r /osc/\$3/receive;
#X obj 29 497 s /osc/\$3/message;
#X obj 29 468 osc_net/parse_device \$2 networker;
#X obj 91 90 osc_net/config_gui \$1 \$2 \$3;
#X text 232 525 osc_net library \, (c) GPL V3.0 \, IEM \, w.ritsch;
#X text 318 110 (copy and rename for your gui);
#X text 31 269 Use IP from info to set it automaticallly for sending;
#X text 151 395 optional /osc/\$1/return (backchannel);
#X text 50 316 SEND to board;
#X text 212 180 receive on same port: send to /osc/\$3/receive;
#X connect 14 0 15 0;
#X connect 15 0 16 0;
#X connect 17 0 19 0;
#X connect 19 0 18 0;
