#N canvas 787 444 749 405 10;
#X obj 25 158 list trim;
#X obj 379 21 loadbang;
#X obj 447 51 select 0;
#X msg 25 90 listen \$1;
#X text 13 23 Receive on Info port and detect a Calliope;
#X obj 206 68 sel 0 1;
#X msg 203 115 0;
#X obj 379 44 t b b;
#X obj 25 111 netreceive -u -b;
#X msg 379 69 1;
#X obj 478 335 spigot 0;
#X obj 25 137 oscparse;
#X obj 479 189 spigot 0;
#X obj 542 184 r /osc_net/detect/v;
#X obj 479 259 t b;
#X obj 163 194 spigot 0;
#X text 150 252 ignore id;
#X obj 25 235 route_anything;
#X text 13 6 detect <id> <base_address> [port];
#X obj 206 45 r /osc/\$1/detect/on;
#X obj 25 64 r /osc/\$1/detect/port;
#X obj 447 24 int \$3;
#X obj 379 91 s /osc/\$1/detect/on;
#X obj 239 119 s /osc/\$1/detect/port;
#X obj 103 140 r /osc/\$1/base_address;
#X obj 226 189 r /osc/\$1/detect/raw/v;
#X obj 163 218 print /osc/\$1/raw;
#X obj 71 327 s /osc/\$1/alert;
#X obj 25 349 s /osc/\$1/info;
#X obj 481 161 r /osc/\$1/alert;
#X obj 479 213 print /osc/\$1/alert;
#X obj 479 236 r /osc/\$1/info;
#X obj 479 281 s /osc/\$1/detect/received;
#X obj 541 330 r /osc/\$1/detect/v;
#X obj 478 359 print /osc/\$1/info;
#X text 22 369 // /osc/\$1/info <id> <hostname> <remoteIP-1> <remoteIP-2> <remoteIP-3> <remoteIP-4> <osc_port>, f 71;
#X obj 478 307 r /osc/\$1/info;
#X obj 25 189 route \$2;
#X obj 547 115 s /osc/\$1/base_address;
#X obj 547 43 list append \$2;
#X obj 547 65 route symbol;
#X obj 547 20 bng 15 250 50 0 empty empty empty 17 7 0 10 #fcfcfc #000000 #000000;
#X text 257 0 use different IDs for using different broadcast ports;
#X obj 239 95 i 5511;
#X obj 123 165 print detect_baseaddress;
#X obj 150 284 s /osc/\$1/unparsed;
#X obj 25 258 route info alert ui;
#X obj 118 307 s /osc/\$1/ui;
#X connect 0 0 15 0;
#X connect 0 0 37 0;
#X connect 1 0 7 0;
#X connect 2 1 43 0;
#X connect 3 0 8 0;
#X connect 5 0 6 0;
#X connect 5 1 43 0;
#X connect 6 0 3 0;
#X connect 7 0 9 0;
#X connect 7 1 21 0;
#X connect 7 1 39 0;
#X connect 8 0 11 0;
#X connect 9 0 22 0;
#X connect 10 0 34 0;
#X connect 11 0 0 0;
#X connect 12 0 30 0;
#X connect 13 0 12 1;
#X connect 14 0 32 0;
#X connect 15 0 26 0;
#X connect 17 0 46 0;
#X connect 19 0 5 0;
#X connect 20 0 3 0;
#X connect 21 0 2 0;
#X connect 24 0 37 1;
#X connect 24 0 44 0;
#X connect 25 0 15 1;
#X connect 29 0 12 0;
#X connect 31 0 14 0;
#X connect 33 0 10 1;
#X connect 36 0 10 0;
#X connect 37 0 17 0;
#X connect 39 0 40 0;
#X connect 40 0 38 0;
#X connect 41 0 39 0;
#X connect 43 0 23 0;
#X connect 46 0 28 0;
#X connect 46 1 27 0;
#X connect 46 2 47 0;
#X connect 46 3 45 0;
