#N canvas 29 286 418 195 10;
#X obj 11 11 cnv 15 198 98 empty empty OSC_INFO_\$1 3 6 0 8 #dcdcdc
#404040 0;
#X obj 151 26 nbx 5 14 -1e+37 1e+37 0 0 /osc/\$1/info/port /osc/\$1/info/port
empty 0 -8 0 10 #fcfcfc #000000 #000000 0 256;
#X symbolatom 12 54 32 0 0 2 hostname /osc/\$1/info/hostname - 0;
#X obj 193 12 tgl 15 0 empty empty l 3 7 0 10 #b8b8b8 #000000 #000000
0 1;
#X obj 263 73 del 10000;
#X msg 263 94 0;
#X obj 225 44 t b;
#X msg 265 46 1;
#X obj 12 26 nbx 3 14 -1e+37 1e+37 0 0 /osc/\$1/info/remoteIP/1 /osc/\$1/info/remoteIP/1
empty 0 -8 0 10 #fcfcfc #000000 #000000 0 256;
#X obj 48 26 nbx 3 14 -1e+37 1e+37 0 0 /osc/\$1/info/remoteIP/2 /osc/\$1/info/remoteIP/2
empty 0 -8 0 10 #fcfcfc #000000 #000000 0 256;
#X obj 84 26 nbx 3 14 -1e+37 1e+37 0 0 /osc/\$1/info/remoteIP/3 /osc/\$1/info/remoteIP/3
empty 0 -8 0 10 #fcfcfc #000000 #000000 0 256;
#X obj 120 26 nbx 3 14 -1e+37 1e+37 0 0 /osc/\$1/info/remoteIP/4 /osc/\$1/info/remoteIP/4
empty 0 -8 0 10 #fcfcfc #000000 #000000 0 256;
#X obj 120 12 nbx 5 14 -1e+37 1e+37 0 0 /osc/\$1/info/id /osc/\$1/info/id
id -12 8 0 10 #fcfcfc #000000 #000000 0 256;
#X obj 246 138 nbx 4 14 -1e+37 1e+37 0 0 /osc/\$1/info/temperature
/osc/\$1/info/temperature °C 30 -6 0 10 #fcfcfc #000000 #000000 0
256;
#X obj 291 138 nbx 2 14 -1e+37 1e+37 0 0 /osc/\$1/info/humidity /osc/\$1/info/humidity
% 15 -6 0 10 #fcfcfc #000000 #000000 0 256;
#X obj 227 19 r /osc/\$1/info/hostname;
#X text 18 295 also get ssid and rssi;
#X obj 30 124 r /osc/\$1/info/ssid;
#X symbolatom 11 87 26 0 0 2 ssid - - 0;
#X obj 169 89 nbx 3 14 -1e+37 1e+37 0 0 empty /osc/\$1/info/rssi rssi
0 -8 0 10 #dcdcdc #000000 #000000 0 256;
#X obj 30 147 filename_shorten 26;
#X connect 4 0 5 0;
#X connect 5 0 3 0;
#X connect 6 0 4 0;
#X connect 6 0 7 0;
#X connect 7 0 3 0;
#X connect 15 0 6 0;
#X connect 17 0 20 0;
#X connect 20 0 18 0;
#X coords 0 -1 1 1 200 100 2 10 10;
