#N canvas 842 340 583 355 10;
#X obj 298 79 loadbang;
#X obj 20 128 route 0;
#X text 12 35 // /osc/\$1/info <id> <hostname> <remoteIP-1> <remoteIP-2>
<remoteIP-3> <remoteIP-4> <osc_port> <name> <fet_channels> <servo>
, f 74;
#X obj 156 223 s /osc/\$1/info/port;
#X obj 129 245 s /osc/\$1/info/remoteIP/4;
#X obj 102 268 s /osc/\$1/info/remoteIP/3;
#X obj 75 289 s /osc/\$1/info/remoteIP/2;
#X obj 48 311 s /osc/\$1/info/remoteIP/1;
#X obj 21 333 s /osc/\$1/info/hostname;
#X obj 370 109 r /osc/\$1/id;
#X obj 298 130 sel 0;
#X obj 359 78 inlet;
#X text 6 14 parse_info <id> <id of detect> [id device];
#X obj 325 169 s /osc/\$1/info/id;
#X obj 61 105 r /osc/\$1/info/id;
#X obj 298 104 int \$3;
#X obj 21 150 unpack symbol f f f f f s f;
#X obj 181 174 s /osc/\$1/info/rssi;
#X obj 166 197 s /osc/\$1/info/ssid;
#X obj 21 79 r /osc/\$2/info;
#X connect 0 0 15 0;
#X connect 1 0 16 0;
#X connect 9 0 13 0;
#X connect 10 1 13 0;
#X connect 11 0 13 0;
#X connect 14 0 1 1;
#X connect 15 0 10 0;
#X connect 16 0 8 0;
#X connect 16 1 7 0;
#X connect 16 2 6 0;
#X connect 16 3 5 0;
#X connect 16 4 4 0;
#X connect 16 5 3 0;
#X connect 16 6 18 0;
#X connect 16 7 17 0;
#X connect 19 0 1 0;
