#N canvas 520 591 455 297 10;
#X obj 8 39 inlet;
#X obj 94 195 spigot;
#X obj 94 218 print parse_\$1_\$2;
#X obj 11 215 outlet;
#X obj 129 145 r /parse_msg/\$1/\$2/v;
#X obj 10 125 route \$2;
#X text 6 4 osc_net/parse_msg <id> [osc_addr];
#X text 116 39 helper for route;
#X connect 0 0 5 0;
#X connect 1 0 2 0;
#X connect 4 0 1 1;
#X connect 5 0 1 0;
#X connect 5 0 3 0;
