#N canvas 831 635 549 333 10;
#X obj 8 39 inlet;
#X obj 8 102 list trim;
#X obj 261 55 loadbang;
#X obj 261 100 list append \$3;
#X obj 403 57 inlet;
#X obj 89 212 spigot;
#X obj 8 76 oscparse;
#X obj 8 232 outlet;
#X obj 122 182 r /osc/\$1/parse_device/v;
#X obj 8 125 route base_address;
#X obj 8 149 osc_net/route_int_symbol -1;
#X obj 113 102 r /osc/\$1/base_address;
#X obj 320 56 r /osc/\$1/id;
#X obj 89 235 print parse_device-\$1;
#X text 6 4 osc_net/osc_parse_device <osc send id> [base_address] [device id], f 69;
#X connect 0 0 6 0;
#X connect 1 0 9 0;
#X connect 2 0 3 0;
#X connect 3 0 10 1;
#X connect 4 0 3 0;
#X connect 5 0 13 0;
#X connect 6 0 1 0;
#X connect 8 0 5 1;
#X connect 9 0 10 0;
#X connect 10 0 5 0;
#X connect 10 0 7 0;
#X connect 11 0 9 1;
#X connect 12 0 3 0;
