#N canvas 694 105 489 368 10;
#X obj 48 253 spigot 0;
#X obj 288 63 loadbang;
#X obj 287 147 sel 0;
#X text 14 13 osc_receive <ID> [port];
#X text 13 33 receive formatted OSC messages from UPD port;
#X obj 288 84 t b;
#X obj 287 126 int \$2;
#X obj 48 296 print osc_\$1_receive;
#X obj 47 203 r /osc/\$1/receive;
#X obj 45 88 route 0 1;
#X msg 45 118 listen 0;
#X obj 287 191 s /osc/\$1/rec/portnr;
#X obj 120 91 r /osc/\$1/rec/portnr;
#X msg 120 114 listen \$1;
#X obj 45 148 netreceive -u -b \$2;
#X obj 321 95 r /osc/\$1/rec/portnr;
#X obj 92 232 r /osc/\$1/rec/v;
#X obj 45 65 r /osc/\$1/rec/on;
#X obj 48 276 oscparse;
#X msg 287 168 5510;
#X obj 45 172 s /osc/\$1/receive;
#X connect 0 0 18 0;
#X connect 1 0 5 0;
#X connect 2 0 19 0;
#X connect 2 1 11 0;
#X connect 5 0 6 0;
#X connect 6 0 2 0;
#X connect 8 0 0 0;
#X connect 9 0 10 0;
#X connect 9 1 6 0;
#X connect 10 0 14 0;
#X connect 12 0 13 0;
#X connect 13 0 14 0;
#X connect 14 0 20 0;
#X connect 15 0 6 1;
#X connect 16 0 0 1;
#X connect 17 0 9 0;
#X connect 18 0 7 0;
#X connect 19 0 11 0;
