#N canvas 780 777 372 162 10;
#X obj 11 11 cnv 15 198 48 empty empty osc_receive_\$1 3 7 0 10 #c4fcc4
#404040 0;
#X obj 147 43 nbx 5 14 -1e+37 1e+37 0 0 /osc/\$1/rec/portnr /osc/\$1/rec/portnr
portnr 0 -8 0 10 #fcfcfc #000000 #000000 0 256;
#X obj 13 27 tgl 30 0 /osc/\$1/rec/on /osc/\$1/rec/on ON 3 15 0 16
#00fc04 #000000 #000000 0 1;
#X obj 49 29 tgl 15 0 /osc/\$1/rec/v /osc/\$1/rec/v V_rec 4 8 0 10
#f8fc00 #000000 #000000 0 1;
#X obj 235 17 r /osc/\$1/receive;
#X obj 235 40 t b;
#X obj 233 83 speedlim 250;
#X obj 191 13 bng 15 250 50 0 empty empty empty 17 7 0 10 #c4fcc4 #000000
#000000;
#X msg 236 61 1;
#X obj 49 44 tgl 15 0 /osc/\$1/parse_device/v /osc/\$1/parse_device/v
V_parse 4 8 0 10 #f8fc00 #000000 #000000 0 1;
#X connect 4 0 5 0;
#X connect 5 0 8 0;
#X connect 6 0 7 0;
#X connect 8 0 6 0;
#X coords 0 -1 1 1 200 50 2 10 10;
