#N canvas 786 74 524 470 10;
#X obj 23 11 inlet;
#X obj 45 286 pack 0 0 100;
#X obj 45 374 outlet;
#X text 128 27 [nr][dur][dt] - nr \, list or bang;
#X text 125 156 number of device;
#X obj 291 215 spigot;
#X obj 73 64 unpack 0 0 100;
#X obj 23 41 route bang;
#X obj 254 311 r /osc/\$1/base_address;
#X obj 156 317 r /osc/\$1/id;
#X obj 291 244 print request_\$1_\$2;
#X obj 142 289 inlet;
#X obj 240 287 inlet;
#X obj 156 87 s /osc/\$1/deltatime;
#X obj 114 113 s /osc/\$1/duration;
#X obj 73 136 s /osc/\$1/nr;
#X obj 45 157 r /osc/\$1/nr;
#X obj 85 184 r /osc/\$1/duration;
#X obj 116 208 r /osc/\$1/deltatime;
#X obj 318 193 r /osc/\$1/v;
#X text 128 6 osc_net/request <id> <parameter> <osc id>;
#X obj 45 348 osc_net/send_msg \$3 \$2/get iii;
#X text 131 41 default: 0 0 100;
#X connect 0 0 7 0;
#X connect 1 0 5 0;
#X connect 1 0 21 0;
#X connect 5 0 10 0;
#X connect 6 0 15 0;
#X connect 6 1 14 0;
#X connect 6 2 13 0;
#X connect 7 0 1 0;
#X connect 7 1 6 0;
#X connect 8 0 21 2;
#X connect 9 0 21 1;
#X connect 11 0 21 1;
#X connect 12 0 21 2;
#X connect 16 0 1 0;
#X connect 17 0 1 1;
#X connect 18 0 1 2;
#X connect 19 0 5 1;
#X connect 21 0 2 0;
