#N canvas 1509 383 1043 585 10;
#X obj 11 11 cnv 15 198 198 empty empty OSC_NETWORKS/\$1 3 6 0 8 #dcdcdc #404040 0;
#X obj 160 13 nbx 4 12 -1e+37 1e+37 0 0 /osc/\$1/info/id /osc/\$1/info/id id -16 8 0 10 #dfdfdf #000000 #000000 0 256;
#X obj 20 189 bng 15 250 50 0 empty empty save 17 7 0 10 #ff0400 #000000 #000000;
#X obj 79 190 bng 15 250 50 0 empty empty restore 17 7 0 10 #00faff #000000 #000000;
#X msg 455 171 symbol reset;
#X obj 453 51 osc_net/send_msg \$1 osc_net/save s;
#X obj 456 101 osc_net/send_msg \$1 osc_net/read s;
#X obj 454 193 osc_net/send_msg \$1 reset s;
#X obj 454 218 s /osc/\$1/send;
#X obj 456 124 s /osc/\$1/send;
#X obj 455 74 s /osc/\$1/send;
#X obj 157 186 bng 18 250 50 0 empty empty reset 17 7 0 10 #feffc6 #000000 #000000;
#X obj 13 30 bng 15 250 50 0 empty empty print_networks 17 7 0 10 #fcfcfc #000000 #000000;
#X text 497 308 a) request networks;
#X obj 475 415 route ssid;
#X obj 611 486 print ssid_status;
#X obj 475 440 route list status;
#X obj 474 485 s req_networks/list;
#X obj 11 48 cnv 18 198 98 empty empty set_networks 20 12 0 10 #c6ffc7 #404040 0;
#X obj 30 345 pack s s;
#X symbolatom 12 79 32 0 0 2 ssid - - 10;
#X symbolatom 12 110 32 0 0 2 passwd - - 10;
#X obj 12 131 bng 15 250 50 0 empty empty set 17 7 0 10 #fcfcfc #000000 #000000;
#X text 30 246 b) send;
#X obj 71 130 bng 15 250 50 0 empty empty set_no_passwd 17 7 0 10 #fcfcfc #000000 #000000;
#X obj 11 153 bng 15 250 50 0 empty empty unset 17 7 0 10 #fcfcfc #000000 #000000;
#X text 278 65 comment;
#X obj 30 297 symbol passwd;
#X obj 98 321 symbol ssid;
#X obj 30 439 s /osc/\$1/send;
#X obj 247 394 osc_net/send_msg \$1 ssid/set;
#X text 307 6 request_id_ctl <osc id>;
#X obj 98 345 osc_net/send_msg \$1 ssid/set s 1;
#X obj 30 394 osc_net/send_msg \$1 ssid/set ss;
#X obj 475 362 s /osc/\$1/send;
#X obj 475 392 r /osc/\$1/message;
#X obj 474 338 osc_net/request nets-\$0 ssid/list 1;
#X obj 719 335 r req_networks/list;
#X msg 717 389 \$2 \$1 \$3;
#X obj 717 366 list;
#X obj 717 413 text insert \$0-networks;
#X msg 739 483 click;
#X msg 837 485 sort;
#X msg 789 483 clear;
#X obj 739 458 t b b;
#X text 793 459 show networks text;
#X obj 124 28 bng 15 250 50 0 empty empty show_search 17 7 0 10 #fcfcfc #000000 #000000;
#X obj 740 508 text define -k \$0-networks;
#A set;
#X connect 2 0 5 0;
#X connect 3 0 6 0;
#X connect 4 0 7 0;
#X connect 5 0 10 0;
#X connect 6 0 9 0;
#X connect 7 0 8 0;
#X connect 11 0 4 0;
#X connect 12 0 36 0;
#X connect 14 0 16 0;
#X connect 16 0 17 0;
#X connect 16 1 15 0;
#X connect 19 0 33 0;
#X connect 20 0 27 1;
#X connect 20 0 28 1;
#X connect 21 0 19 1;
#X connect 22 0 27 0;
#X connect 24 0 28 0;
#X connect 25 0 30 0;
#X connect 27 0 19 0;
#X connect 28 0 32 0;
#X connect 30 0 29 0;
#X connect 32 0 29 0;
#X connect 33 0 29 0;
#X connect 35 0 14 0;
#X connect 36 0 34 0;
#X connect 37 0 39 0;
#X connect 38 0 40 0;
#X connect 39 0 38 0;
#X connect 41 0 47 0;
#X connect 42 0 47 0;
#X connect 43 0 47 0;
#X connect 44 0 41 0;
#X connect 44 1 43 0;
#X connect 46 0 44 0;
#X coords 0 -1 1 1 200 200 2 10 10;
