#N canvas 1245 0 712 331 10;
#X obj 11 11 cnv 15 198 98 empty empty OSC_REQ_ID/\$1 3 6 0 8 #dcdcdc #404040 0;
#X obj 160 13 nbx 4 12 -1e+37 1e+37 0 0 /osc/\$1/info/id /osc/\$1/info/id id -16 8 0 10 #dfdfdf #000000 #000000 0 256;
#X obj 17 29 bng 15 250 50 0 empty empty get_id 17 7 0 10 #fcfcfc #000000 #000000;
#X obj 25 223 route id;
#X obj 63 50 nbx 5 16 -1e+37 1e+37 0 0 empty empty new_id -48 8 0 10 #c6ffc7 #000000 #000000 0 256;
#X obj 148 50 bng 18 250 50 0 empty empty set -24 8 0 10 #c6ffc7 #000000 #000000;
#X text 230 135 2) set config.id;
#X text 260 255 test on 1) if written;
#X obj 230 164 int 0;
#X obj 231 186 t f f;
#X obj 231 287 s /osc/1/id;
#X obj 258 237 s /osc/1/send;
#X obj 258 212 osc_net/send_msg 1 id/set i;
#X obj 15 70 bng 15 250 50 0 empty empty save_nvm 17 7 0 10 #ff0400 #000000 #000000;
#X obj 15 88 bng 15 250 50 0 empty empty restore 17 7 0 10 #00faff #000000 #000000;
#X msg 455 171 symbol reset;
#X obj 453 51 osc_net/send_msg \$1 osc_net/save s;
#X obj 456 101 osc_net/send_msg \$1 osc_net/read s;
#X obj 454 193 osc_net/send_msg \$1 reset s;
#X obj 454 218 s /osc/\$1/send;
#X obj 456 124 s /osc/\$1/send;
#X obj 455 74 s /osc/\$1/send;
#X obj 227 18 del 500;
#X obj 150 86 bng 18 250 50 0 empty empty reset 17 7 0 10 #feffc6 #000000 #000000;
#X obj 26 174 s /osc/\$1/send;
#X obj 85 115 r /osc/\$1/info/id;
#X obj 26 149 osc_net/request id-\$0 id \$1;
#X obj 25 201 r /osc/\$2/message;
#X obj 25 250 s /req_id-\$0/id;
#X obj 227 47 r /req_id-\$0/id;
#X text 307 6 request_id_ctl <osc send nr> <osc receive nr>;
#X connect 2 0 26 0;
#X connect 3 0 28 0;
#X connect 4 0 8 1;
#X connect 5 0 8 0;
#X connect 8 0 9 0;
#X connect 9 0 10 0;
#X connect 9 1 12 0;
#X connect 12 0 11 0;
#X connect 13 0 16 0;
#X connect 14 0 22 0;
#X connect 14 0 17 0;
#X connect 15 0 18 0;
#X connect 16 0 21 0;
#X connect 17 0 20 0;
#X connect 18 0 19 0;
#X connect 22 0 2 0;
#X connect 23 0 15 0;
#X connect 25 0 26 1;
#X connect 26 0 24 0;
#X connect 27 0 3 0;
#X connect 29 0 4 0;
#X coords 0 -1 1 1 200 100 2 10 10;
