#N canvas 1291 424 629 587 10;
#X obj 32 268 netsend -u -b;
#X msg 128 289 disconnect;
#X obj 30 183 list prepend send;
#X obj 30 201 list trim;
#X obj 371 315 spigot 0;
#X obj 209 319 spigot 0;
#X obj 210 339 oscparse;
#X obj 30 159 spigot;
#X obj 66 103 r /osc/\$1/send/on;
#X obj 254 297 r /osc/\$1/send/v;
#X obj 32 348 s /osc/\$1/send/connected;
#X obj 60 299 outlet;
#X text 50 319 return channel;
#X obj 162 180 pack s f;
#X obj 177 88 r /osc/\$1/send/ip;
#X obj 220 181 r /osc/\$1/send/portnr;
#X text 13 29 send formatted OSC messages to UPD port;
#X text 14 9 osc_updsend <ID> <ip> [port];
#X obj 300 9 loadbang;
#X obj 371 85 s /osc/\$1/send/ip;
#X obj 371 61 symbol \$2;
#X obj 487 78 sel 0;
#X obj 487 121 s /osc/\$1/send/portnr;
#X obj 487 57 int \$3;
#X obj 371 336 oscparse;
#X obj 34 404 r /osc/\$1/send/connected;
#X obj 34 466 spigot;
#X obj 34 487 sel 0;
#X obj 34 528 del 10000;
#X obj 34 549 s /osc/\$1/send/ip;
#X text 106 526 try connect every 10 sec;
#X obj 253 390 r /osc/\$1/send/autoconnect;
#X obj 81 501 loadbang;
#X obj 128 267 r /osc/\$1/send/disconnect;
#X obj 415 294 r /osc/\$1/send/return/v;
#X obj 372 260 r /osc/\$1/send/return;
#X obj 371 358 print osc_\$1_return;
#X obj 210 361 print osc_\$1;
#X obj 60 138 && 1;
#X obj 62 53 r /osc/\$1/send/connected;
#X obj 60 74 t b f;
#X msg 227 155 0;
#X obj 67 436 i 0;
#X msg 159 209 connect \$1 \$2;
#X msg 212 235 disconnect;
#X obj 177 130 t s b b b;
#X obj 253 411 t f f;
#X obj 253 434 sel 1;
#X obj 177 109 symbol;
#X obj 253 455 s /osc/\$1/send/ip;
#X msg 299 89 1;
#X obj 299 112 s /osc/\$1/send/autoconnect;
#X obj 300 30 t b b b;
#X obj 13 94 inlet;
#X text 385 19 Arguments;
#X msg 487 99 5510;
#X connect 0 0 10 0;
#X connect 0 1 11 0;
#X connect 1 0 0 0;
#X connect 2 0 3 0;
#X connect 3 0 0 0;
#X connect 4 0 24 0;
#X connect 5 0 6 0;
#X connect 6 0 37 0;
#X connect 7 0 2 0;
#X connect 7 0 5 0;
#X connect 8 0 38 0;
#X connect 9 0 5 1;
#X connect 13 0 43 0;
#X connect 14 0 48 0;
#X connect 15 0 13 1;
#X connect 18 0 52 0;
#X connect 20 0 19 0;
#X connect 21 0 55 0;
#X connect 21 1 22 0;
#X connect 23 0 21 0;
#X connect 24 0 36 0;
#X connect 25 0 26 0;
#X connect 26 0 27 0;
#X connect 27 0 28 0;
#X connect 28 0 29 0;
#X connect 31 0 46 0;
#X connect 32 0 28 0;
#X connect 33 0 1 0;
#X connect 34 0 4 1;
#X connect 35 0 4 0;
#X connect 38 0 7 1;
#X connect 39 0 40 0;
#X connect 40 0 38 0;
#X connect 40 1 38 1;
#X connect 41 0 26 1;
#X connect 42 0 26 1;
#X connect 43 0 0 0;
#X connect 44 0 0 0;
#X connect 45 0 13 0;
#X connect 45 1 42 0;
#X connect 45 2 44 0;
#X connect 45 3 41 0;
#X connect 46 0 47 0;
#X connect 46 1 42 0;
#X connect 47 0 49 0;
#X connect 48 0 45 0;
#X connect 50 0 51 0;
#X connect 52 0 50 0;
#X connect 52 1 20 0;
#X connect 52 2 23 0;
#X connect 53 0 7 0;
#X connect 55 0 22 0;
