#N canvas 951 338 634 436 12;
#X msg 95 302 set \$1;
#X obj 29 62 inlet;
#X obj 28 361 outlet;
#X msg 128 246 set \$1;
#X obj 96 94 inlet;
#X obj 97 277 makefilename dummy;
#X obj 148 94 r /osc/\$1/id;
#X obj 320 60 inlet;
#X obj 227 37 loadbang;
#X obj 365 60 r /osc/\$1/base_address;
#X obj 322 147 route symbol;
#X msg 321 193 set \$1;
#X obj 97 146 t b f b;
#X text 194 305 construct message if id or base_address changes;
#X obj 336 88 t b b s;
#X obj 227 61 t b b;
#X obj 128 225 makefilename dummmy;
#X obj 97 171 list append \$2;
#X obj 319 127 list append \$5;
#X text 36 38 data;
#X text 324 40 <base_address>;
#X obj 28 335 oscformat -f \$3 /base_address/unnamed/\$2;
#X obj 96 123 int \$4;
#X obj 321 172 makefilename /%s/%%d/%%%%s;
#X text 96 59 <id>;
#X obj 427 201 loadbang;
#X obj 427 226 list append \$3;
#X obj 427 251 sel 0;
#X msg 426 276 format;
#X text 23 1 osc_net/send_msg <osc id> <osc address> [format] [board id] [base_address], f 71;
#X text 476 246 format 0: no format;
#X connect 0 0 21 0;
#X connect 1 0 21 0;
#X connect 3 0 5 0;
#X connect 4 0 22 0;
#X connect 5 0 0 0;
#X connect 6 0 22 0;
#X connect 7 0 14 0;
#X connect 8 0 15 0;
#X connect 9 0 14 0;
#X connect 10 0 23 0;
#X connect 11 0 16 0;
#X connect 12 0 17 0;
#X connect 12 1 16 0;
#X connect 14 0 22 0;
#X connect 14 1 18 0;
#X connect 14 2 18 1;
#X connect 15 0 22 0;
#X connect 15 1 18 0;
#X connect 16 0 3 0;
#X connect 17 0 5 0;
#X connect 18 0 10 0;
#X connect 21 0 2 0;
#X connect 22 0 12 0;
#X connect 23 0 11 0;
#X connect 25 0 26 0;
#X connect 26 0 27 0;
#X connect 27 0 28 0;
#X connect 28 0 21 0;
